<?xml version="1.0" encoding="utf-8"?>
<!-- Generator: Adobe Illustrator 24.1.2, SVG Export Plug-In . SVG Version: 6.00 Build 0)  -->
<svg version="1.1" id="Layer_1" xmlns="http://www.w3.org/2000/svg" xmlns:xlink="http://www.w3.org/1999/xlink" x="0px" y="0px"
	 viewBox="0 0 512 512" style="enable-background:new 0 0 512 512;" xml:space="preserve">
<style type="text/css">
	.st0{fill:#1D1E20;}
	.st1{fill:#FFFFFF;}
	.st2{fill:#F5A8B8;}
	.st3{fill:none;}
	.st4{fill:none;stroke:#000000;stroke-width:19.4225;stroke-linecap:round;stroke-linejoin:round;stroke-miterlimit:10;}
</style>
<g>
	<path class="st0" d="M200.9,345.6c-256.9,0-253-179.3,0.1-179.3l0,0C333.4-63,486.6,29.6,356,255.9l0,0
		C487.5,483.3,330.4,569.9,200.9,345.6L200.9,345.6z"/>
	<path class="st1" d="M351.1,486.1c-49.3,0-107.3-48.8-155.8-130.9c-58.4-0.6-107.5-10.6-142.5-28.9C18.8,308.5,0,283.6,0,256.4
		c0-27.3,18.9-52.4,53.2-70.5c35.1-18.6,84.2-28.7,142.2-29.3C226,104.8,260,65.8,293.9,43.8c33-21.5,64.2-25.8,87.8-12.2
		c23.7,13.7,35.6,43,33.6,82.7c-2,40.6-18.6,89.5-48,141.6c47.1,83.3,60.6,157.9,36.3,200.1C392.2,475.4,373.6,486.1,351.1,486.1
		C351.1,486.1,351.1,486.1,351.1,486.1z M351.4,43.2c-36.6,0-91.1,39.8-142,127.9c-1.7,3-4.9,4.9-8.4,4.9
		c-72.4,0-115.4,14.7-138.7,27.1c-27.2,14.4-42.8,33.9-42.8,53.4c0,39.5,62.3,79.4,181.5,79.4c3.5,0,6.7,1.9,8.4,4.9
		c53.6,92.9,108.4,126,141.8,126c0,0,0,0,0,0c15.6,0,27.9-7.1,35.6-20.5c16.5-28.5,14.9-92.3-39-185.5c-1.7-3-1.7-6.7,0-9.7
		c37.4-64.8,46.9-110.7,48.2-137.7c1.6-31.5-7.1-55.2-24-64.9C366,45,359.1,43.2,351.4,43.2z"/>
</g>
<g>
	<path class="st0" d="M149.7,254.2C21.2,31.8,178.4-54.7,305,164.6l0,0c264.9,0,261.1,179.1,0,179.1l0,0
		C173.7,571.2,20.1,478.5,149.7,254.2L149.7,254.2z"/>
	<path class="st1" d="M155.4,484.8c-22.5,0-41.1-10.8-52.4-30.3c-24.6-42.7-11.3-117.3,35.5-200.3c-28.7-50.8-44.6-98.4-46.2-137.8
		c-1.5-38.4,10.6-67.1,34.1-80.7c23.7-13.7,54.8-9.9,87.7,10.8c33.7,21.1,67,58.6,96.5,108.5c60.2,0.6,110.9,10.5,146.9,28.8
		c35.1,17.9,54.4,42.7,54.4,69.9c0,27.3-19.5,52.4-54.8,70.5c-36.2,18.5-86.8,28.6-146.6,29.2C262,435.7,204.2,484.8,155.4,484.8
		C155.4,484.8,155.4,484.8,155.4,484.8z M157.4,47.1c-7.9,0-15.1,1.8-21.3,5.3c-34.2,19.7-37.6,93.7,22,196.9c1.7,3,1.7,6.7,0,9.7
		c-53.6,92.9-54.9,156.9-38.2,185.8c7.8,13.5,20.1,20.6,35.5,20.6c0,0,0,0,0,0c33,0,87.4-33.3,141.3-126.6c1.7-3,4.9-4.9,8.4-4.9
		c74.8,0,119.2-14.7,143.3-27.1c28.1-14.4,44.2-33.8,44.2-53.2c0-39.4-64.4-79.3-187.5-79.3c-3.5,0-6.7-1.9-8.4-4.9
		c-36.2-62.7-70.5-92.6-92.9-106.6C187.2,52.4,171.2,47.1,157.4,47.1z"/>
</g>
<g>
	<g>
		<path class="st2" d="M356.8,265.9H253.3c-5.4,0-9.7-4.3-9.7-9.7c0-5.4,4.3-9.7,9.7-9.7h103.4c5.4,0,9.7,4.3,9.7,9.7
			C366.5,261.6,362.1,265.9,356.8,265.9z"/>
	</g>
	<g>
		<path class="st2" d="M201.6,355.5c-1.6,0-3.3-0.4-4.8-1.3c-4.6-2.7-6.2-8.6-3.6-13.3l51.7-89.6c2.7-4.6,8.6-6.2,13.3-3.6
			c4.6,2.7,6.2,8.6,3.6,13.3L210,350.7C208.2,353.8,205,355.5,201.6,355.5z"/>
	</g>
	<g>
		<path class="st2" d="M253.3,265.9c-3.4,0-6.6-1.7-8.4-4.9l-51.7-89.6c-2.7-4.6-1.1-10.6,3.6-13.3c4.6-2.7,10.6-1.1,13.3,3.6
			l51.7,89.6c2.7,4.6,1.1,10.6-3.6,13.3C256.7,265.5,255,265.9,253.3,265.9z"/>
	</g>
</g>
<g>
	<path class="st3" d="M305,256.2"/>
</g>
<g>
	<path class="st3" d="M305,256.2"/>
</g>
<g>
	<path class="st4" d="M112.5,256.2"/>
</g>
<g>
	<path class="st4" d="M112.4,256.2"/>
</g>
<g>
	<path class="st4" d="M252.8,256.2"/>
</g>
<g>
	<path class="st4" d="M394.1,256.2"/>
</g>
<g>
	<path class="st4" d="M394.4,256.2"/>
</g>
<g>
	<path class="st4" d="M252.6,256.2"/>
</g>
</svg>
