<svg version="1" xmlns="http://www.w3.org/2000/svg" width="933.333" height="933.333" viewBox="0 0 700.000000 700.000000"><path d="M469 60.1c-20.4 3.1-47.4 16.5-70.9 35.3-9.3 7.4-32.1 28.5-32.8 30.2-.3.8 3 5.7 7.4 11.2 15.5 18.9 37.6 50.5 49.4 70.4l2.7 4.5 20.3.6c25.7.9 53.4 3.4 75.9 7.1 4.7.7 8.6 1.3 8.6 1.2.1 0 1.8-6.9 3.8-15.1 9.6-39.6 10.3-77.3 1.9-102.5-7-21.3-18.8-34.6-36-40.5-8.2-2.9-20.7-3.9-30.3-2.4z"/><path d="M198.5 66.8c-24.6 7.5-39.7 28.7-44.4 62.7-1.6 11-1.3 32.4.5 46.7 5.6 44.5 25.2 98.9 54.4 151.3 11.2 19.9 11.2 20.2 1 38-40.5 71.4-63.2 149-58.1 199.2 4.5 44.4 24.1 69 56.7 71 23.8 1.5 51.4-9.5 82.7-33 13.2-9.9 41.1-36.9 53.9-52.2 17.5-21 37.4-49.3 54.3-77.3 10.6-17.6 8.9-16.8 39.5-17.5 114.5-2.7 203.5-35.9 228.3-85.3 22.6-45-22-92.7-107.8-115.4-37.2-9.9-84.9-15.9-125.5-16-23.9-.1-24.4-.3-33.6-15.9-14.9-25.2-33.3-51.4-50.8-72.6-11.9-14.4-34.8-37.4-46.6-46.8-20.6-16.6-44-29.8-62.5-35.2-12.1-3.6-32.8-4.4-42-1.7zm81.8 148.6c1.8.7 4.1 2.4 5.3 3.7 1.2 1.3 17.1 28.4 35.4 60.1l33.2 57.8h68.2c62.9 0 68.4.1 71.5 1.8 6.5 3.3 8.9 11.8 5.1 17.9-4.3 7.2.3 6.7-76.4 7.3l-69 .5-28.3 49c-41.6 72.1-39.9 69.2-43.5 71.1-4.5 2.4-11.2 1.4-14.9-2.2-3.3-3.2-5.1-8.5-4.2-12.3.3-1.4 15.8-29 34.4-61.3l33.8-58.6-33.1-57.4c-18.2-31.5-33.7-58.8-34.5-60.6-2.6-6.2.7-14 7.1-16.8 4-1.7 5.9-1.7 9.9 0z"/><path d="M133.5 258.7c-67.3 19.5-109.1 57.2-106.2 95.6 2.5 33.9 36.3 63.8 93.7 83.1 9.1 3 18.1 5.8 20.1 6.1l3.6.7 2.8-7.9c7.6-21.1 24.1-57 36.6-79.5l5-9-3.6-6.7c-13.3-24.6-27.4-54.7-34.7-74.1-2.2-5.8-4.3-10.8-4.6-11.2-.4-.3-6.1.9-12.7 2.9zM516 476.2c-19.8 3.1-49.7 5.8-70.8 6.5l-20.4.6-3.6 6c-16 25.8-34.3 52-50.6 72.1l-8 10 10.4 9.9c60.3 57.1 117 72.4 147.3 39.7 19.5-21 25.3-58.2 17.1-108-1.7-10-7.8-35.3-9.1-37.4-.6-1-3.2-.8-12.3.6z"/></svg>